# xmcd
#
# Track frame offsets:
#	150
#	13647
#	30106
#	43804
#	59552
#	76209
#	90289
#	105179
#	120131
#	135065
#	149059
#	161670
#	176879
#	192295
#	207472
#	220748
#	233594
#	249027
#	263789
#	278003
#	291600
#	305975
#
# Disc length: 4289 seconds
#
# Revision: 0
# Processed by: cddbd v1.5.1PL2 Copyright (c) Steve Scherf et al.
# Submitted via: dBpowerAMP V4.0
#
DISCID=2c10bf16
DTITLE=Clara Smith - Complete Recorded Works-v.1 1923-24
DYEAR=1900
DGENRE=Blues
TTITLE0=I Got Everything a Woman Needs
TTITLE1=Every Woman's Blues
TTITLE2=Kind Lovin' Blues
TTITLE3=Down South Blues
TTITLE4=All Night Blues
TTITLE5=Play It
TTITLE6=I Want My Sweet Daddy Now
TTITLE7=Irresistable Blues
TTITLE8=I Never Miss the Sunshine
TTITLE9=Awful Moanin' Blues
TTITLE10=Don't Never Tell Nobody
TTITLE11=Waitin' for the Evenin' Mail
TTITLE12=Kansas City Man Blues
TTITLE13=Uncle Sam Blues
TTITLE14=Far Away Blues
TTITLE15=I'm Going Back to My Used to Be
TTITLE16=It Won't Be Long Now
TTITLE17=Hot Papa
TTITLE18=I'm Gonna Tear Your Playhouse Down
TTITLE19=I Don't Love Nobody
TTITLE20=Good Looking Papa Blues
TTITLE21=You Don't Know My Mind
EXTD=
EXTT0=
EXTT1=
EXTT2=
EXTT3=
EXTT4=
EXTT5=
EXTT6=
EXTT7=
EXTT8=
EXTT9=
EXTT10=
EXTT11=
EXTT12=
EXTT13=
EXTT14=
EXTT15=
EXTT16=
EXTT17=
EXTT18=
EXTT19=
EXTT20=
EXTT21=
PLAYORDER=
